<svg xmlns="http://www.w3.org/2000/svg" width="24" height="24" viewBox="0 0 24 24">
    <g data-name="Group 11957">
        <path data-name="Rectangle 9590" style="fill:none" d="M0 0h24v24H0z"/>
        <g data-name="Group 11950">
            <path data-name="Subtraction 91" d="M5.7 17H2a2 2 0 0 1-2-2V2a2 2 0 0 1 2-2h14a2 2 0 0 1 2 2v13a2 2 0 0 1-2 2h-3.686V9.4H5.7V17z" transform="translate(3 7)" style="fill:#ffce1a"/>
            <path data-name="Polygon 4" d="M11.36.533a1 1 0 0 1 1.28 0l9.238 7.7a1 1 0 0 1-.64 1.767H2.762a1 1 0 0 1-.64-1.768z" transform="translate(0 .001)" style="fill:#fe5047"/>
        </g>
    </g>
</svg>
