<svg xmlns="http://www.w3.org/2000/svg" width="234" height="68" viewBox="0 0 234 68">
    <g data-name="Group 84422">
        <path data-name="Rectangle 10250" style="fill:#fff" d="M0 0h234v68H0z"/>
        <g data-name="Group 1117">
            <g data-name="Group 1115" transform="translate(2 12)">
                <path data-name="Path 7589" d="M2501.658 1638.5a1.063 1.063 0 0 0-1.067 1.127 18.935 18.935 0 0 0 37.8 0 1.063 1.063 0 0 0-1.067-1.127z" transform="translate(-2500.589 -1615.097)" style="fill:#3a1593"/>
                <path data-name="Path 7590" d="m2576.171 1530.739-7.629 2.053a.444.444 0 0 1-.543-.323l-2.053-7.629a.444.444 0 0 1 .322-.543l7.629-2.053a.444.444 0 0 1 .543.322l2.053 7.629a.443.443 0 0 1-.322.544z" transform="translate(-2552.779 -1522.231)" style="fill:#90c73a"/>
                <circle data-name="Ellipse 178" cx="4.63" cy="4.63" r="4.63" transform="translate(3.424 10.481)" style="fill:#ff5148"/>
                <path data-name="Path 7591" d="m2620.877 1579.613 9.26-2.476a.5.5 0 0 0 .222-.845l-6.784-6.783a.506.506 0 0 0-.845.221l-2.476 9.259a.519.519 0 0 0 .623.624z" transform="translate(-2596.156 -1559.872)" style="fill:#ffce1a"/>
            </g>
            <g data-name="Group 1116">
                <path data-name="Path 7592" d="M3203.169 1614.185v-.483q0-4.77-2.175-7.186a7.725 7.725 0 0 0-6.059-2.415 8.669 8.669 0 0 0-3.241.624 8.139 8.139 0 0 0-2.8 1.872 9.273 9.273 0 0 0-1.953 3.1 11.983 11.983 0 0 0-.744 4.348 12.713 12.713 0 0 0 .583 3.9c.1.322.222.624.342.926a7.768 7.768 0 0 0 2.516 3.12 4.981 4.981 0 0 0 1.329.805 8.185 8.185 0 0 0 1.468.564 12.543 12.543 0 0 0 3.242.5 13.426 13.426 0 0 0 2.838-.141c.483-.08.946-.181 1.429-.3.282-.081.585-.141.866-.241a1.031 1.031 0 0 0 .664-1.248l-.442-1.61a1.026 1.026 0 0 0-1.269-.7.987.987 0 0 1-.261.06 14.094 14.094 0 0 1-4.026.3 5.931 5.931 0 0 1-3.2-1.187 4.649 4.649 0 0 1-1.489-2.7.676.676 0 0 1 .664-.8h10.568a1.117 1.117 0 0 0 1.107-1.107.333.333 0 0 0-.021-.141.165.165 0 0 1 .064.14zm-4.952-2.053h-6.642a.688.688 0 0 1-.665-.845 4.9 4.9 0 0 1 .241-.765 5.1 5.1 0 0 1 .806-1.409 3.834 3.834 0 0 1 1.268-.987 3.738 3.738 0 0 1 1.751-.382 4.442 4.442 0 0 1 1.791.342 3.579 3.579 0 0 1 1.188.926 4.476 4.476 0 0 1 .745 1.409 4.925 4.925 0 0 1 .2.946.7.7 0 0 1-.683.765z" transform="translate(-3046.194 -1575.621)" style="fill:#3a1593"/>
                <path data-name="Path 7593" d="M3301.439 1604.626c-.04 0-.08-.02-.12-.02a16.382 16.382 0 0 0-2.214-.12 22.467 22.467 0 0 0-6 1.047 1.123 1.123 0 0 0-.805 1.087v16.143a1.074 1.074 0 0 0 1.067 1.067h2.255a1.074 1.074 0 0 0 1.066-1.067v-13.727a.48.48 0 0 1 .383-.483c.181-.04.382-.081.4-.081a7.5 7.5 0 0 1 1.147-.161 8.927 8.927 0 0 1 2.073.061c.041 0 .1.02.141.02a1.058 1.058 0 0 0 1.027-.785l.463-1.671a.988.988 0 0 0 .02-.242 1.037 1.037 0 0 0-.903-1.068z" transform="translate(-3130.938 -1575.925)" style="fill:#3a1593"/>
                <path data-name="Path 7594" d="M2770.043 1575.9h-2.858a.85.85 0 0 0-.845.845v8.716a.679.679 0 0 1-.685.684h-9.521a.679.679 0 0 1-.685-.684v-8.716a.85.85 0 0 0-.845-.845h-2.858a.85.85 0 0 0-.845.845v23.37a.85.85 0 0 0 .845.845h2.858a.85.85 0 0 0 .845-.845v-9.5a.679.679 0 0 1 .685-.685h9.521a.679.679 0 0 1 .685.685v9.5a.85.85 0 0 0 .845.845h2.858a.851.851 0 0 0 .845-.845v-23.37a.826.826 0 0 0-.845-.845z" transform="translate(-2698.516 -1553.097)" style="fill:#3a1593"/>
                <path data-name="Path 7595" d="M2890.6 1606.5h-2.013a1.177 1.177 0 0 0-1.188 1.187v13.547a.694.694 0 0 1-.6.685c-.2.02-.442.06-.725.081-.584.04-1.147.08-1.691.08a3.509 3.509 0 0 1-3.1-1.308 8.07 8.07 0 0 1-.886-4.348v-8.776a1.16 1.16 0 0 0-1.147-1.147h-2.094a1.16 1.16 0 0 0-1.147 1.147v9.461a14.766 14.766 0 0 0 .4 3.523 7.146 7.146 0 0 0 1.328 2.778 6.33 6.33 0 0 0 2.456 1.812 9.678 9.678 0 0 0 3.825.644 27.561 27.561 0 0 0 4.449-.342 67.637 67.637 0 0 0 2.7-.523.757.757 0 0 0 .583-.745v-16.566a1.144 1.144 0 0 0-1.15-1.19z" transform="translate(-2798.435 -1577.538)" style="fill:#3a1593"/>
                <path data-name="Path 7596" d="M2994.831 1607a6.115 6.115 0 0 0-2.476-1.771 10.362 10.362 0 0 0-3.864-.624 27.78 27.78 0 0 0-4.489.323 24.637 24.637 0 0 0-2.717.543.756.756 0 0 0-.584.745v16.667a1.074 1.074 0 0 0 1.067 1.067h2.254a1.073 1.073 0 0 0 1.067-1.067v-13.613a.694.694 0 0 1 .6-.684c.221-.02.463-.061.745-.1a13.045 13.045 0 0 1 1.731-.1 5.174 5.174 0 0 1 1.892.3 2.474 2.474 0 0 1 1.228.986 4.38 4.38 0 0 1 .644 1.731 13.571 13.571 0 0 1 .2 2.6v8.9a1.074 1.074 0 0 0 1.066 1.067h2.255a1.073 1.073 0 0 0 1.066-1.067v-9.581a14.774 14.774 0 0 0-.382-3.523 6.932 6.932 0 0 0-1.303-2.799z" transform="translate(-2882.059 -1576.02)" style="fill:#3a1593"/>
                <path data-name="Path 7597" d="M3095.507 1605.426a36.813 36.813 0 0 0-2.5-.483 26.159 26.159 0 0 0-4.268-.342 11.13 11.13 0 0 0-4.146.724 8.887 8.887 0 0 0-3.1 2.013 8.7 8.7 0 0 0-1.932 3.12 11.578 11.578 0 0 0-.664 3.985 12.041 12.041 0 0 0 .624 4.086 8.163 8.163 0 0 0 1.751 2.939 7.293 7.293 0 0 0 2.7 1.792 9.662 9.662 0 0 0 3.482.6 9.178 9.178 0 0 0 2.577-.342c.422-.121.8-.262 1.127-.383a.494.494 0 0 1 .665.463 4.52 4.52 0 0 1-1.188 3.382 5.589 5.589 0 0 1-3.965 1.147 16.6 16.6 0 0 1-3.261-.3 11.839 11.839 0 0 1-1.408-.382 1.108 1.108 0 0 0-1.41.845l-.483 1.671a1.112 1.112 0 0 0 .805 1.308 26.52 26.52 0 0 0 2.134.484 20.6 20.6 0 0 0 3.563.3c3.322 0 5.8-.745 7.407-2.214s2.416-3.785 2.416-6.965v-16.284a1.188 1.188 0 0 0-.926-1.164zm-3.664 13.184a.782.782 0 0 1-.423.684 6.378 6.378 0 0 1-1.167.483 6.885 6.885 0 0 1-2.073.3 4.266 4.266 0 0 1-3.281-1.349 6.134 6.134 0 0 1-1.268-4.287 6.712 6.712 0 0 1 1.329-4.348 4.635 4.635 0 0 1 3.844-1.65 14.909 14.909 0 0 1 1.833.1c.241.04.443.06.644.1a.693.693 0 0 1 .564.685z" transform="translate(-2960.492 -1576.02)" style="fill:#3a1593"/>
                <path data-name="Path 7598" d="M3475.761 1606.918a8.346 8.346 0 0 0-2.879-2.013 9.6 9.6 0 0 0-3.683-.7 9.5 9.5 0 0 0-3.664.7 8.263 8.263 0 0 0-2.878 2.013 9.394 9.394 0 0 0-1.892 3.14 11.857 11.857 0 0 0-.665 4.066 11.978 11.978 0 0 0 .665 4.087 9.047 9.047 0 0 0 1.871 3.14 8.521 8.521 0 0 0 2.858 2.033 9.12 9.12 0 0 0 3.684.724 9.217 9.217 0 0 0 3.7-.724 8.406 8.406 0 0 0 2.879-2.033 9.027 9.027 0 0 0 1.852-3.14 12.018 12.018 0 0 0 .644-4.087 11.816 11.816 0 0 0-.664-4.066 8.406 8.406 0 0 0-1.828-3.14zm-3.16 11.715a4.258 4.258 0 0 1-6.763 0 7.558 7.558 0 0 1-1.208-4.529 7.36 7.36 0 0 1 1.208-4.468 4.289 4.289 0 0 1 6.763 0 7.443 7.443 0 0 1 1.207 4.468 7.556 7.556 0 0 1-1.208 4.529z" transform="translate(-3264.961 -1575.701)" style="fill:#3a1593"/>
                <path data-name="Path 7599" d="M3570.313 1620.63c-1.107-1.57-2.274-3.1-3.483-4.63a.694.694 0 0 1-.019-.825l2.738-3.925 1.631-2.315a.834.834 0 0 0 .1-.181l.4-.584a1.067 1.067 0 0 0-.865-1.671h-2.215a1.055 1.055 0 0 0-.885.483l-3.181 4.871a.357.357 0 0 1-.6 0l-3.4-4.891a1.06 1.06 0 0 0-.865-.443h-2.234a1.066 1.066 0 0 0-.865 1.671l4.972 7.166a.665.665 0 0 1-.041.825c-.523.644-1.026 1.308-1.549 1.993-.624.846-1.248 1.671-1.852 2.516s-1.147 1.671-1.671 2.476l-.423.664a1.051 1.051 0 0 0 .886 1.631h2.094a1 1 0 0 0 .885-.5 61.237 61.237 0 0 1 1.711-2.657 35.1 35.1 0 0 1 2.214-2.939.374.374 0 0 1 .564 0c.322.4.645.825.987 1.248.423.564.845 1.127 1.248 1.711s.764 1.127 1.107 1.651l.644.986a1.056 1.056 0 0 0 .886.483h2.294a1.062 1.062 0 0 0 .906-1.611q-.941-1.541-2.119-3.203z" transform="translate(-3341.417 -1577.538)" style="fill:#3a1593"/>
                <path data-name="Path 7600" d="m3374.358 1587.7-.182-.121.141-.161a6.193 6.193 0 0 0 1.469-4.932 7.543 7.543 0 0 0-7.548-6.582h-7.89a1.039 1.039 0 0 0-1.046 1.047v22.967a1.039 1.039 0 0 0 1.046 1.046h9.5a7.583 7.583 0 0 0 7.569-6.763 7.245 7.245 0 0 0-3.059-6.501zm-10.669-7.045a.636.636 0 0 1 .644-.644h3.8c2.053 0 3.865 1.147 3.8 3.321-.041 1.57-1.349 2.718-3.362 2.858h-4.247a.636.636 0 0 1-.644-.644zm5.7 16.244h-5.052a.636.636 0 0 1-.644-.644v-5.636a.636.636 0 0 1 .644-.644h5.374a3.815 3.815 0 0 1 3.4 3.623c-.001 1.566-.766 3.357-3.725 3.297z" transform="translate(-3184.452 -1553.097)" style="fill:#3a1593"/>
            </g>
        </g>
    </g>
</svg>
