<svg xmlns="http://www.w3.org/2000/svg" width="14" height="14" viewBox="0 0 14 14">
    <g data-name="Group 13876" transform="translate(-136 -553)">
        <circle data-name="Ellipse 1609" cx="7" cy="7" r="7" transform="translate(136 553)" style="fill:#3a1593"/>
        <path data-name="Subtraction 451" d="M2.206 9.345a.631.631 0 0 1-.513-.272.706.706 0 0 1-.1-.6l.64-2.148a.652.652 0 0 0-.225-.707L.269 4.31a.675.675 0 0 1-.26-.437.7.7 0 0 1 .11-.5.632.632 0 0 1 .514-.283l2.136-.023a.606.606 0 0 0 .568-.445l.64-2.149A.641.641 0 0 1 4.587 0a.6.6 0 0 1 .19.031.656.656 0 0 1 .415.428l.681 2.134a.6.6 0 0 0 .57.432h.007L8.586 3h.007a.658.658 0 0 1 .638.666.688.688 0 0 1-.258.547L7.258 5.558a.652.652 0 0 0-.212.712l.68 2.13a.7.7 0 0 1-.034.514.645.645 0 0 1-.368.339.606.606 0 0 1-.2.035.614.614 0 0 1-.37-.124L5.01 7.863a.578.578 0 0 0-.708.008L2.586 9.213a.613.613 0 0 1-.38.132z" transform="translate(138.4 554.97)" style="fill:#fff"/>
    </g>
</svg>
